<?xml version="1.0" standalone="no"?>
<!DOCTYPE svg PUBLIC "-//W3C//DTD SVG 20010904//EN"
 "http://www.w3.org/TR/2001/REC-SVG-20010904/DTD/svg10.dtd">
<svg version="1.0" xmlns="http://www.w3.org/2000/svg"
 width="1080.000000pt" height="1080.000000pt" viewBox="0 0 1080.000000 1080.000000"
 preserveAspectRatio="xMidYMid meet">

<g transform="translate(0.000000,1080.000000) scale(0.100000,-0.100000)"
fill="#000000" stroke="none">
<path d="M4575 7550 c-4 -6 -3 -16 3 -22 6 -6 12 -6 17 2 4 6 3 16 -3 22 -6 6
-12 6 -17 -2z"/>
<path d="M4545 7517 c-3 -7 -1 -26 5 -41 13 -37 14 -36 -16 -36 -21 0 -25 4
-20 18 3 9 -8 1 -24 -18 -27 -31 -42 -68 -22 -56 5 3 9 -1 9 -9 0 -18 -9 -19
-24 -4 -8 8 -13 5 -18 -10 -3 -11 -12 -27 -19 -33 -6 -7 -22 -30 -34 -50 -19
-31 -21 -41 -12 -60 10 -21 10 -21 -3 -6 -8 10 -16 16 -18 13 -3 -2 -86 -6
-184 -9 -349 -9 -690 -72 -1027 -189 -187 -65 -266 -103 -293 -140 -26 -37
-25 -126 5 -296 60 -347 193 -736 353 -1028 l51 -93 216 0 c271 0 258 -7 240
139 -8 61 -11 149 -7 228 l5 128 -21 -26 c-12 -14 -64 -78 -116 -143 -52 -64
-95 -116 -97 -116 -16 0 -158 323 -215 489 -46 134 -115 403 -125 489 l-6 59
153 51 c174 58 320 94 489 122 124 20 385 45 412 39 15 -4 14 -11 -8 -64 -14
-33 -54 -142 -89 -243 -58 -166 -69 -188 -112 -236 -99 -108 -142 -236 -150
-443 -6 -149 8 -270 46 -404 l18 -64 688 -3 c662 -2 689 -1 709 17 35 31 62
41 116 41 64 0 102 -20 140 -72 55 -75 35 -182 -43 -239 -32 -23 -50 -29 -94
-29 -55 0 -99 16 -122 44 -10 12 -34 16 -103 16 l-89 0 27 -51 c108 -198 402
-220 537 -40 49 66 67 120 67 201 0 64 -5 83 -42 165 -17 39 -128 143 -128
120 0 -4 -7 0 -14 8 -8 8 -44 20 -80 27 -73 14 -139 4 -206 -30 -34 -17 -59
-20 -185 -20 l-146 0 18 31 c18 31 153 175 153 163 0 -3 15 3 33 14 17 11 68
33 112 47 64 22 96 27 165 26 113 -2 122 -4 196 -36 19 -8 36 -10 45 -4 21 13
33 11 20 -5 -9 -11 -6 -16 18 -24 16 -6 33 -7 37 -4 4 4 4 -1 1 -11 -4 -10 -3
-16 2 -12 5 3 12 1 16 -5 4 -6 11 -7 17 -4 6 4 8 3 5 -3 -8 -13 37 -56 48 -46
4 5 5 3 2 -3 -4 -6 5 -24 19 -40 13 -16 31 -40 38 -54 53 -98 66 -130 75 -189
13 -78 19 -201 10 -195 -4 2 -9 -13 -11 -34 -8 -57 -70 -180 -119 -238 -72
-85 -185 -154 -291 -179 -276 -65 -556 89 -650 358 l-23 67 -63 0 -64 0 7 -32
c80 -370 454 -604 825 -516 25 5 87 30 138 54 75 36 107 59 170 122 71 71 139
162 110 147 -7 -4 -6 -1 3 7 50 42 103 241 92 348 -2 25 -5 58 -5 73 -1 19 -4
24 -9 16 -13 -22 -19 -5 -10 29 6 21 6 32 0 32 -6 0 -8 4 -5 8 3 5 -1 19 -8
33 -7 13 -11 30 -9 36 2 6 -1 15 -8 19 -9 5 -10 2 -6 -9 3 -10 2 -17 -3 -17
-6 0 -10 5 -10 12 0 6 -8 20 -17 31 -10 11 -12 17 -5 13 9 -6 11 -1 8 16 -7
38 -18 58 -27 52 -8 -5 -13 10 -10 29 1 5 -3 6 -8 2 -6 -3 -8 -13 -5 -23 5
-14 4 -14 -4 -3 -6 8 -8 21 -4 29 4 11 2 13 -8 7 -10 -6 -12 -4 -7 9 5 11 3
15 -5 10 -8 -5 -9 -2 -5 10 4 10 3 15 -4 11 -5 -4 -7 -16 -4 -28 2 -12 2 -16
-1 -9 -3 6 -10 10 -15 7 -5 -4 -6 1 -3 9 3 8 -2 29 -12 47 -17 33 -17 33 -26
10 -5 -16 -4 -29 4 -40 12 -14 11 -14 -4 -3 -9 8 -21 11 -25 9 -5 -3 -8 13 -7
36 2 51 -3 62 -22 46 -12 -10 -13 -9 -8 6 6 14 4 16 -6 10 -10 -6 -12 -4 -7 8
4 11 1 15 -13 12 -14 -3 -17 1 -13 12 4 10 2 14 -4 10 -6 -4 -13 -2 -15 3 -2
6 -11 12 -20 13 -9 2 -23 9 -32 16 -9 7 -16 10 -16 5 0 -5 -4 -3 -8 4 -5 7
-26 15 -47 17 -21 3 -68 12 -104 21 -137 32 -323 -10 -478 -109 -81 -51 -206
-199 -228 -268 -6 -17 -17 -19 -126 -19 -139 0 -132 -9 -78 109 47 103 114
195 203 278 89 83 168 135 275 180 36 15 68 31 69 35 2 5 8 6 13 3 8 -6 75 8
109 22 19 8 57 12 145 17 l70 4 -65 -8 -65 -7 63 -1 c70 -2 102 9 102 37 0 34
-60 60 -81 35 -9 -12 -15 -12 -27 -2 -13 11 -15 10 -8 -2 4 -8 -1 -6 -11 6
-27 31 -71 57 -83 49 -5 -3 -10 1 -10 9 0 10 -6 13 -17 9 -10 -4 -14 -2 -9 5
8 13 -29 26 -45 16 -8 -4 -9 -3 -5 4 4 7 1 12 -9 12 -9 0 -14 4 -11 9 5 8 -75
44 -90 41 -4 -1 -10 3 -13 9 -4 6 -16 12 -26 14 -11 1 -26 6 -32 10 -7 5 -17
5 -23 2 -5 -3 -10 -2 -10 3 0 12 -92 37 -214 58 -75 12 -137 15 -248 12 -147
-5 -148 -5 -142 16 8 28 69 176 103 249 l26 58 95 -5 c52 -3 133 -12 180 -19
53 -9 87 -10 91 -4 8 12 49 -9 49 -26 0 -8 3 -8 9 1 7 11 9 11 14 -2 7 -18 -8
-32 -18 -16 -3 5 -11 10 -16 10 -6 0 -8 -4 -5 -9 3 -4 -3 -16 -13 -25 -14 -13
-21 -14 -27 -5 -4 7 -3 10 3 6 6 -4 16 0 23 8 16 19 9 19 -34 -2 -20 -9 -32
-21 -29 -27 3 -6 3 -8 -1 -4 -12 10 -67 -13 -59 -25 3 -5 1 -7 -4 -4 -9 6
-123 -49 -123 -59 0 -2 26 -2 58 1 130 11 403 6 420 -7 15 -12 16 -11 3 5 -12
15 -11 17 8 17 19 0 21 6 21 50 0 43 -3 50 -20 50 -11 0 -20 -7 -20 -15 0 -8
-9 -15 -20 -15 -18 0 -20 7 -20 60 l0 60 -30 0 c-23 0 -30 4 -30 20 0 11 -4
20 -10 20 -5 0 -10 9 -10 20 0 11 -4 20 -10 20 -5 0 -10 5 -10 11 0 19 -28 39
-54 39 -23 0 -26 4 -26 33 0 37 -23 56 -72 59 -34 3 -35 11 -5 27 16 9 17 10
2 5 -42 -14 -65 -16 -65 -6 0 5 -16 13 -36 16 -37 8 -53 28 -36 49 11 13 -8
49 -24 46 -5 -1 -21 -1 -36 0 -26 1 -28 4 -28 41 0 33 3 40 20 40 31 0 24 28
-18 68 -43 42 -55 65 -40 80 6 6 6 12 -1 17 -6 3 -14 0 -16 -8z m-79 -217 c0
-12 -4 -16 -9 -11 -5 5 -6 14 -3 20 10 15 12 14 12 -9z m287 -157 c-7 -2 -21
-2 -30 0 -10 3 -4 5 12 5 17 0 24 -2 18 -5z m10 -20 c-7 -2 -21 -2 -30 0 -10
3 -4 5 12 5 17 0 24 -2 18 -5z m1033 -1350 c-7 -7 -26 7 -26 19 0 6 6 6 15 -2
9 -7 13 -15 11 -17z m184 -87 c0 -3 -4 -8 -10 -11 -5 -3 -10 -1 -10 4 0 6 5
11 10 11 6 0 10 -2 10 -4z m-60 -40 c0 -6 -4 -5 -9 3 -5 8 -11 9 -15 3 -3 -6
1 -18 10 -26 8 -9 11 -16 6 -16 -5 0 -17 11 -26 25 -12 18 -13 24 -4 23 7 -2
12 3 10 11 -3 12 0 12 12 1 9 -7 16 -18 16 -24z m90 -76 c0 -5 -5 -10 -11 -10
-5 0 -7 5 -4 10 3 6 8 10 11 10 2 0 4 -4 4 -10z"/>
<path d="M4760 7390 c0 -4 7 -7 15 -6 23 3 26 12 5 13 -11 1 -20 -2 -20 -7z"/>
<path d="M4723 7335 c0 -7 6 -12 13 -12 7 0 11 4 8 8 -2 4 2 9 8 12 7 3 4 5
-8 4 -11 -1 -21 -6 -21 -12z"/>
<path d="M4687 7290 c7 -26 19 -34 29 -19 4 8 3 9 -4 5 -16 -9 -15 7 0 22 9 9
7 12 -9 12 -16 0 -20 -5 -16 -20z"/>
<path d="M4925 7140 c11 -5 29 -8 40 -8 16 0 15 2 -5 8 -34 11 -60 11 -35 0z"/>
<path d="M5190 6780 c0 -11 5 -20 10 -20 6 0 10 9 10 20 0 11 -4 20 -10 20 -5
0 -10 -9 -10 -20z"/>
<path d="M5479 6379 c-13 -11 -19 -18 -13 -15 7 3 14 -4 17 -15 3 -11 15 -23
26 -26 16 -4 18 -9 11 -23 -5 -9 -6 -20 -3 -24 10 -10 43 -7 43 4 0 6 -3 10
-8 10 -4 0 -12 10 -17 23 -6 12 -16 22 -22 22 -7 0 -13 3 -13 8 0 19 40 -3 50
-27 8 -18 9 -17 9 11 1 29 -2 33 -41 41 -24 6 -35 10 -25 11 9 1 17 6 17 11 0
14 -5 13 -31 -11z"/>
<path d="M5726 6222 c-2 -4 4 -8 14 -8 10 0 16 4 14 8 -3 4 -9 8 -14 8 -5 0
-11 -4 -14 -8z"/>
<path d="M5810 6196 c0 -2 7 -7 16 -10 8 -3 12 -2 9 4 -6 10 -25 14 -25 6z"/>
<path d="M6026 6018 c3 -5 10 -6 15 -3 13 9 11 12 -6 12 -8 0 -12 -4 -9 -9z"/>
<path d="M6092 5975 c-9 -18 -8 -26 1 -31 7 -4 9 -4 5 1 -4 4 -3 16 3 27 6 11
9 22 6 24 -2 2 -9 -7 -15 -21z"/>
<path d="M6118 5943 c7 -3 16 -2 19 1 4 3 -2 6 -13 5 -11 0 -14 -3 -6 -6z"/>
<path d="M6115 5921 c-3 -5 -2 -12 3 -15 5 -3 9 1 9 9 0 17 -3 19 -12 6z"/>
<path d="M5819 5888 c-4 -18 -3 -58 2 -58 10 0 17 50 8 56 -5 3 -9 4 -10 2z"/>
<path d="M2137 5712 c-258 -34 -347 -49 -345 -59 2 -7 52 -75 111 -152 l108
-141 -114 -147 c-71 -91 -110 -150 -103 -154 6 -4 181 -28 389 -54 l378 -49
202 202 201 202 -199 200 c-196 196 -200 200 -240 199 -22 -1 -197 -22 -388
-47z"/>
<path d="M6292 5520 c0 -14 2 -19 5 -12 2 6 2 18 0 25 -3 6 -5 1 -5 -13z"/>
<path d="M6313 5361 c2 -58 -1 -95 -6 -88 -5 7 -6 -9 -3 -38 4 -36 3 -44 -4
-30 -9 18 -10 18 -8 -5 0 -14 -2 -34 -6 -45 -5 -11 -14 -37 -22 -59 -8 -21
-13 -41 -10 -43 3 -3 -2 -12 -10 -20 -8 -9 -13 -22 -10 -29 3 -8 1 -14 -4 -14
-6 0 -10 -4 -10 -10 0 -14 -58 -108 -97 -157 -20 -25 -31 -48 -27 -55 4 -7 4
-10 -1 -6 -4 4 -41 -23 -81 -60 -164 -152 -352 -229 -579 -239 -244 -11 -466
70 -649 238 -143 131 -229 291 -280 522 l-6 27 -266 0 -266 0 67 -127 c254
-487 709 -972 1257 -1342 l107 -72 78 52 c160 108 344 250 483 372 95 84 334
324 385 387 11 14 48 59 82 100 35 41 63 80 63 87 0 7 3 13 8 13 10 1 65 77
61 84 -2 3 6 13 19 21 12 9 20 21 17 26 -4 5 -1 9 6 9 10 0 10 3 1 12 -7 7 -8
17 -2 28 5 10 5 22 -1 31 -8 11 -12 11 -16 2 -7 -18 -23 -16 -23 3 0 9 9 18
20 21 18 5 20 14 20 84 l0 79 -34 0 c-54 0 -66 8 -66 46 0 19 -4 34 -10 34 -5
0 -10 9 -10 20 0 13 -7 20 -20 20 -17 0 -20 7 -20 40 0 33 -3 40 -20 40 -17 0
-20 7 -20 40 0 39 -1 40 -35 40 -26 0 -33 3 -29 15 3 8 -1 21 -10 30 -13 14
-15 6 -13 -84z m-21 -243 c-6 -6 -7 0 -4 19 5 21 7 23 10 9 2 -10 0 -22 -6
-28z m14 -52 c0 -13 -4 -22 -8 -20 -9 6 -6 44 3 44 4 0 6 -11 5 -24z m174 -71
c0 -17 -2 -18 -25 -9 -13 5 -14 8 -3 15 19 13 28 11 28 -6z m-70 -55 c-6 -11
-15 -20 -21 -20 -6 0 -6 7 1 20 6 11 15 20 21 20 6 0 6 -7 -1 -20z m176 -85
c1 -8 -3 -18 -8 -22 -6 -3 -8 -1 -4 5 3 6 2 13 -4 17 -6 4 -8 11 -4 16 7 12
17 4 20 -16z m-49 -70 c0 -8 -4 -12 -9 -9 -5 3 -6 10 -3 15 9 13 12 11 12 -6z"/>
<path d="M3187 5208 c-72 -125 -197 -437 -255 -638 -64 -220 -123 -555 -109
-611 17 -66 65 -97 267 -172 324 -121 700 -193 1063 -204 l189 -6 22 -36 c13
-20 53 -85 91 -144 192 -306 461 -610 740 -834 145 -116 145 -116 214 -111 52
4 65 9 127 58 351 273 650 614 872 996 l41 71 178 6 c243 9 613 57 613 80 0 5
6 7 14 4 15 -6 183 34 238 57 19 8 39 12 43 8 4 -4 6 -1 4 6 -5 14 -25 15
-339 21 -178 4 -110 17 125 26 168 5 231 9 258 14 13 2 7 42 -8 47 -11 5 -15
21 -15 60 0 30 -4 54 -10 54 -5 0 -10 8 -10 19 0 10 -8 21 -17 25 -10 3 -25 9
-33 12 -13 5 -13 4 0 -5 10 -7 11 -11 3 -11 -7 0 -13 -7 -13 -15 0 -8 -9 -15
-20 -15 -11 0 -20 -4 -20 -10 0 -6 -9 -6 -24 0 -13 5 -27 6 -30 3 -3 -3 -12 0
-21 7 -10 8 -19 9 -27 3 -7 -6 -35 -13 -61 -17 -27 -3 -54 -9 -60 -13 -6 -4
-23 -8 -37 -10 -15 -1 -81 -11 -148 -22 -130 -22 -418 -48 -427 -39 -3 3 8 36
24 75 53 130 123 342 115 354 -4 8 -3 9 4 5 8 -5 13 1 14 16 2 36 3 42 10 53
3 6 8 24 9 40 2 17 7 32 10 35 4 3 9 19 12 35 3 17 8 39 12 50 5 15 4 17 -3 6
-8 -11 -10 -6 -9 20 2 28 6 34 25 35 13 1 29 7 35 14 9 10 9 11 -2 5 -10 -6
-8 1 4 23 10 17 21 29 24 27 4 -2 15 3 25 11 16 11 17 16 6 29 -7 8 -16 12
-21 9 -14 -8 0 -25 14 -18 7 4 9 3 4 -1 -4 -5 -18 -10 -30 -12 -12 -2 -17 0
-12 4 17 13 11 37 -12 51 -13 7 -23 17 -23 21 0 5 -9 7 -20 4 -11 -3 -20 -10
-20 -15 0 -5 -4 -7 -9 -4 -5 3 -12 -1 -15 -10 -4 -10 -2 -13 7 -9 6 4 2 -2
-10 -13 -12 -11 -19 -22 -16 -26 4 -3 1 -6 -5 -6 -6 0 -9 -9 -7 -20 2 -11 0
-18 -4 -16 -10 7 -43 -33 -36 -43 2 -5 -7 -16 -21 -26 -16 -10 -23 -22 -20
-31 3 -8 2 -13 -3 -10 -5 3 -17 -6 -26 -20 -9 -15 -12 -23 -5 -19 9 6 9 3 1
-14 -7 -11 -14 -21 -17 -21 -3 0 -2 6 2 13 14 24 -13 -9 -81 -98 -37 -49 -76
-99 -85 -110 -9 -11 -34 -65 -55 -120 -21 -55 -56 -138 -77 -184 l-38 -84 -90
7 -90 8 -73 -67 c-39 -37 -102 -93 -139 -124 -36 -31 -66 -57 -64 -58 1 -1 67
-11 146 -23 79 -12 146 -23 148 -25 8 -7 -134 -209 -234 -334 -109 -136 -302
-334 -415 -426 -82 -68 -63 -74 -226 74 -129 118 -258 258 -365 398 -87 114
-202 282 -197 287 2 2 56 11 119 20 63 9 129 20 147 24 l32 7 -62 51 c-34 28
-97 84 -140 124 l-78 73 -90 -8 -89 -7 -34 74 c-18 40 -53 123 -77 183 -37 94
-60 131 -154 256 -173 231 -310 464 -400 684 -21 49 -53 109 -72 132 l-35 43
-268 0 -268 0 -25 -42z m437 -271 c55 -66 155 -175 222 -243 l122 -124 27
-107 c32 -131 121 -399 169 -512 l36 -82 -93 6 c-326 23 -693 98 -914 188
l-58 24 3 48 c1 27 14 101 28 164 53 238 132 462 246 701 l60 125 26 -34 c15
-19 72 -88 126 -154z m3411 -1047 c3 -5 1 -10 -4 -10 -6 0 -11 5 -11 10 0 6 2
10 4 10 3 0 8 -4 11 -10z m2 -72 c-3 -7 -5 -2 -5 12 0 14 2 19 5 13 2 -7 2
-19 0 -25z m-124 -55 c-7 -2 -19 -2 -25 0 -7 3 -2 5 12 5 14 0 19 -2 13 -5z
m90 0 c-7 -2 -21 -2 -30 0 -10 3 -4 5 12 5 17 0 24 -2 18 -5z m54 1 c-3 -3
-12 -4 -19 -1 -8 3 -5 6 6 6 11 1 17 -2 13 -5z"/>
<path d="M6951 5084 c0 -11 3 -14 6 -6 3 7 2 16 -1 19 -3 4 -6 -2 -5 -13z"/>
<path d="M6650 5025 c-7 -8 -9 -15 -5 -15 4 0 2 -7 -5 -15 -10 -12 -10 -15 0
-15 7 0 10 -7 6 -15 -3 -8 -1 -15 4 -15 6 0 10 7 10 15 0 8 5 15 11 15 8 0 9
4 0 13 -13 16 -5 28 15 20 21 -8 17 5 -5 16 -14 8 -22 7 -31 -4z"/>
<path d="M6847 4856 c-4 -10 -3 -15 3 -11 6 3 10 1 10 -6 0 -7 3 -10 6 -6 3 3
2 13 -4 22 -8 16 -9 16 -15 1z"/>
<path d="M6817 4793 c-4 -3 -7 -11 -7 -17 0 -6 5 -5 12 2 6 6 9 14 7 17 -3 3
-9 2 -12 -2z"/>
<path d="M6850 4756 c0 -2 7 -7 16 -10 8 -3 12 -2 9 4 -6 10 -25 14 -25 6z"/>
<path d="M6963 4735 c0 -8 4 -12 9 -9 4 3 8 9 8 15 0 5 -4 9 -8 9 -5 0 -9 -7
-9 -15z"/>
<path d="M6880 4640 c-9 -6 -10 -10 -3 -10 6 0 15 5 18 10 8 12 4 12 -15 0z"/>
<path d="M6810 4574 c0 -8 5 -12 10 -9 6 3 10 10 10 16 0 5 -4 9 -10 9 -5 0
-10 -7 -10 -16z"/>
<path d="M7617 4058 c-16 -12 -15 -13 9 -15 17 0 22 2 14 7 -10 6 -9 9 1 13 8
3 9 6 3 6 -5 1 -18 -5 -27 -11z"/>
<path d="M7535 4031 c-3 -5 -1 -12 5 -16 5 -3 10 1 10 9 0 18 -6 21 -15 7z"/>
<path d="M7430 4000 c-11 -7 -12 -12 -4 -20 9 -9 14 -9 18 -1 4 6 4 11 -1 11
-4 0 -1 5 7 10 8 5 11 10 5 10 -5 0 -17 -5 -25 -10z"/>
<path d="M7655 3830 l-30 -8 27 -1 c15 0 30 4 33 9 3 6 5 9 3 9 -2 -1 -16 -5
-33 -9z"/>
<path d="M7605 3820 c-8 -13 -1 -24 14 -19 6 3 7 10 2 18 -6 10 -10 10 -16 1z"/>
<path d="M7700 3816 c0 -2 7 -6 15 -10 8 -3 15 -1 15 4 0 6 -7 10 -15 10 -8 0
-15 -2 -15 -4z"/>
<path d="M7640 3795 c0 -8 5 -15 11 -15 5 0 7 5 4 10 -8 13 8 13 21 0 7 -7 11
-6 11 5 0 9 -9 15 -24 15 -14 0 -23 -6 -23 -15z"/>
<path d="M7558 3753 c6 -2 18 -2 25 0 6 3 1 5 -13 5 -14 0 -19 -2 -12 -5z"/>
</g>
</svg>
