<svg width="43" height="35" viewBox="0 0 43 35" fill="none" xmlns="http://www.w3.org/2000/svg">
<path d="M16.0318 3.28125H17.9167C18.6588 3.28125 19.2604 3.77095 19.2604 4.375C19.2604 4.97907 18.6588 5.46875 17.9167 5.46875H16.125C14.3978 5.46875 13.2376 5.47109 12.3722 5.56579C11.5454 5.65626 11.1915 5.81263 10.958 6.00268C10.7246 6.19273 10.5325 6.48073 10.4213 7.15371C10.3049 7.85813 10.3021 8.80249 10.3021 10.2083V11.6667C10.3021 12.2707 9.70047 12.7604 8.95833 12.7604C8.2162 12.7604 7.61458 12.2707 7.61458 11.6667V10.1325C7.61453 8.82222 7.61449 7.72961 7.75775 6.86222C7.90899 5.94669 8.24165 5.12011 9.0577 4.45588C9.87375 3.79165 10.8893 3.52089 12.0141 3.39779C13.0797 3.28118 14.4221 3.28121 16.0318 3.28125Z" fill="#FFF8F8"/>
<path d="M26.9682 3.28125H25.0833C24.3412 3.28125 23.7396 3.77095 23.7396 4.375C23.7396 4.97907 24.3412 5.46875 25.0833 5.46875H26.875C28.6022 5.46875 29.7624 5.47109 30.6278 5.56579C31.4547 5.65626 31.8085 5.81263 32.042 6.00268C32.2754 6.19273 32.4675 6.48073 32.5788 7.15371C32.695 7.85813 32.6979 8.80249 32.6979 10.2083V11.6667C32.6979 12.2707 33.2996 12.7604 34.0417 12.7604C34.7838 12.7604 35.3854 12.2707 35.3854 11.6667V10.1325C35.3854 8.82222 35.3856 7.72961 35.2423 6.86222C35.091 5.94669 34.7583 5.12011 33.9422 4.45588C33.1263 3.79165 32.1108 3.52089 30.986 3.39779C29.9203 3.28118 28.578 3.28121 26.9682 3.28125Z" fill="#FFF8F8"/>
<path d="M25.0833 31.7187H26.9682C28.578 31.7187 29.9203 31.7189 30.986 31.6022C32.1108 31.4791 33.1263 31.2083 33.9422 30.5441C34.7583 29.8799 35.091 29.0533 35.2423 28.1378C35.3856 27.2704 35.3854 26.1778 35.3854 24.8675V23.3333C35.3854 22.7293 34.7838 22.2396 34.0417 22.2396C33.2996 22.2396 32.6979 22.7293 32.6979 23.3333V24.7917C32.6979 26.1975 32.695 27.1419 32.5788 27.8463C32.4675 28.5193 32.2754 28.8073 32.042 28.9973C31.8085 29.1874 31.4547 29.3437 30.6278 29.4343C29.7624 29.5289 28.6022 29.5312 26.875 29.5312H25.0833C24.3412 29.5312 23.7396 30.021 23.7396 30.625C23.7396 31.229 24.3412 31.7187 25.0833 31.7187Z" fill="#FFF8F8"/>
<path d="M16.0318 31.7187H17.9167C18.6588 31.7187 19.2604 31.229 19.2604 30.625C19.2604 30.021 18.6588 29.5312 17.9167 29.5312H16.125C14.3978 29.5312 13.2376 29.5289 12.3722 29.4343C11.5454 29.3437 11.1915 29.1874 10.958 28.9973C10.7246 28.8073 10.5325 28.5193 10.4213 27.8463C10.3049 27.1419 10.3021 26.1975 10.3021 24.7917V23.3333C10.3021 22.7293 9.70047 22.2396 8.95833 22.2396C8.2162 22.2396 7.61458 22.7293 7.61458 23.3333V24.8675C7.61453 26.1778 7.61449 27.2704 7.75775 28.1378C7.90899 29.0533 8.24165 29.8799 9.0577 30.5441C9.87375 31.2083 10.8893 31.4791 12.0141 31.6022C13.0797 31.7189 14.4221 31.7187 16.0318 31.7187Z" fill="#FFF8F8"/>
<path d="M37.625 18.5938C38.3671 18.5938 38.9688 18.104 38.9688 17.5C38.9688 16.896 38.3671 16.4062 37.625 16.4062H5.375C4.63287 16.4062 4.03125 16.896 4.03125 17.5C4.03125 18.104 4.63287 18.5938 5.375 18.5938H37.625Z" fill="#FFF8F8"/>
</svg>
